<svg width="96" height="96" fill="none" xmlns="http://www.w3.org/2000/svg"><path d="M48 4.5c-1.275 0-2.25.975-2.25 2.25V25.5c0 1.275.975 2.25 2.25 2.25 11.175 0 20.25 9.075 20.25 20.25 0 3.6-.974 7.125-2.774 10.2a2.3 2.3 0 00-.226 1.725c.15.6.525 1.05 1.05 1.35l16.2 9.374c.375.225.75.3 1.125.3.75 0 1.5-.374 1.95-1.124C89.4 63.225 91.5 55.65 91.5 48 91.5 24 72 4.5 48 4.5zm-8.946 3.302a1.985 1.985 0 00-.504.073C20.325 12.15 6.75 28.5 6.75 48c0 4.05.6 7.95 1.65 11.625.45 1.35 2.025 2.024 3.3 1.274l12.975-7.423c.825-.45 1.2-1.35 1.125-2.25-.225-1.05-.3-2.176-.3-3.226 0-9.525 5.925-17.7 14.325-21 .9-.3 1.425-1.2 1.425-2.1V10.05c0-1.247-1.033-2.265-2.196-2.248zM50.25 9.075C70.725 10.275 87 27.225 87 48c0 6.15-1.425 12.15-4.2 17.625l-12.375-7.2C71.925 55.2 72.75 51.6 72.75 48c0-12.9-9.9-23.475-22.5-24.675V9.075zm-21.674 47.87a2.224 2.224 0 00-1.276.28L11.024 66.45c-.525.3-.898.75-1.048 1.35-.15.6-.076 1.2.224 1.724C17.925 83.1 32.4 91.5 48 91.5c11.1 0 21.6-4.125 29.7-11.7.9-.825.974-2.25.074-3.15-.825-.976-2.249-.975-3.149-.15C67.35 83.25 57.9 87 48 87c-13.2 0-25.5-6.75-32.7-17.774l12.375-7.05C32.325 68.775 39.9 72.75 48 72.75c1.275 0 2.25-.975 2.25-2.25s-.975-2.25-2.25-2.25c-7.275 0-13.95-3.9-17.625-10.2-.375-.656-1.072-1.048-1.799-1.104zM60.75 64.5a2.25 2.25 0 100 4.5 2.25 2.25 0 000-4.5z" fill="#0A105D" opacity=".2"/></svg>