<?xml version="1.0" encoding="UTF-8"?>
<svg width="16px" height="16px" viewBox="0 0 16 16" version="1.1" xmlns="http://www.w3.org/2000/svg" xmlns:xlink="http://www.w3.org/1999/xlink">
    <!-- Generator: Sketch 64 (93537) - https://sketch.com -->
    <title>icon-chat</title>
    <desc>Created with Sketch.</desc>
    <g id="icon-chat" stroke="none" stroke-width="1" fill="none" fill-rule="evenodd">
        <g id="Group-5">
            <polygon id="Stroke-1" stroke-opacity="0.0117647061" stroke="#000000" stroke-width="0.5" points="0 0 15.9999993 0 15.9999993 15.9999993 0 15.9999993"></polygon>
            <path d="M13.9999998,3.99999976 L12.6666659,3.99999976 L12.6666659,9.99999976 L3.99999976,9.99999976 L3.99999976,11.3333327 C3.99999976,11.6999986 4.29999961,11.9999998 4.66666639,11.9999998 L11.9999998,11.9999998 L14.6666658,14.6666658 L14.6666658,4.66666639 C14.6666658,4.29999961 14.3666651,3.99999976 13.9999998,3.99999976 Z M11.3333333,7.99999952 L11.3333333,1.99999988 C11.3333333,1.63333324 11.0333321,1.33333325 10.666666,1.33333325 L1.99999988,1.33333325 C1.63333324,1.33333325 1.33333325,1.63333324 1.33333325,1.99999988 L1.33333325,11.3333333 L3.99999976,8.66666615 L10.666666,8.66666615 C11.0333321,8.66666615 11.3333333,8.3666663 11.3333333,7.99999952 Z" id="Fill-3" fill="#000000"></path>
        </g>
    </g>
</svg>