<?xml version="1.0" encoding="UTF-8"?>
<svg width="24px" height="24px" viewBox="0 0 24 24" version="1.1" xmlns="http://www.w3.org/2000/svg" xmlns:xlink="http://www.w3.org/1999/xlink">
    <!-- Generator: Sketch 64 (93537) - https://sketch.com -->
    <title>icon-settings</title>
    <desc>Created with Sketch.</desc>
    <g id="icon-settings" stroke="none" stroke-width="1" fill="none" fill-rule="evenodd">
        <g>
            <polygon id="Stroke-1" stroke-opacity="0.0117647061" stroke="#000000" stroke-width="1.33333336e-11" points="0 0 23.999999 0 23.999999 23.999999 0 23.999999"></polygon>
            <path d="M2.99999982,16.999999 L2.99999982,18.999999 L8.99999982,18.999999 L8.99999982,16.999999 L2.99999982,16.999999 Z M2.99999982,4.9999997 L2.99999982,6.9999997 L12.9999998,6.9999997 L12.9999998,4.9999997 L2.99999982,4.9999997 Z M12.9999993,20.9999991 L12.9999993,18.9999991 L20.9999993,18.9999991 L20.9999993,16.9999991 L12.9999993,16.9999991 L12.9999993,14.9999991 L10.9999993,14.9999991 L10.9999993,20.9999991 L12.9999993,20.9999991 Z M6.99999982,8.99999946 L6.99999982,10.9999995 L2.99999982,10.9999995 L2.99999982,12.9999995 L6.99999982,12.9999995 L6.99999982,14.9999995 L8.99999982,14.9999995 L8.99999982,8.99999946 L6.99999982,8.99999946 Z M20.9999993,12.9999993 L20.9999993,10.9999993 L10.9999993,10.9999993 L10.9999993,12.9999993 L20.9999993,12.9999993 Z M14.9999991,8.99999982 L16.9999991,8.99999982 L16.9999991,6.99999982 L20.9999991,6.99999982 L20.9999991,4.99999982 L16.9999991,4.99999982 L16.9999991,2.99999982 L14.9999991,2.99999982 L14.9999991,8.99999982 Z" id="Fill-3" fill="#000000"></path>
        </g>
    </g>
</svg>