<svg width="18" height="20" xmlns="http://www.w3.org/2000/svg"><path d="M1.917.25C.997.25.25.998.25 1.917V15.25c0 .92.748 1.667 1.667 1.667h7.116a4.997 4.997 0 0 1-.96-1.6 4.911 4.911 0 0 1-.323-1.734c0-2.757 2.243-5 5-5h.833V5.25l-5-5H1.917zM7.75 1.463l4.583 4.62H7.75v-4.62zm5 8.787a3.346 3.346 0 0 0-3.333 3.333v.834h.169c.38 1.422 1.628 2.5 3.164 2.5h1.667v1.666l2.5-2.5-2.5-2.5v1.667H12.75c-.93 0-1.667-.736-1.667-1.667 0-.93.736-1.666 1.667-1.666h4.167V10.25H12.75z" fill="#000" fill-rule="nonzero"/></svg>