<?xml version="1.0" encoding="UTF-8"?>
<svg width="16px" height="16px" viewBox="0 0 16 16" version="1.1" xmlns="http://www.w3.org/2000/svg" xmlns:xlink="http://www.w3.org/1999/xlink">
    <!-- Generator: Sketch 64 (93537) - https://sketch.com -->
    <title>icon-pin</title>
    <desc>Created with Sketch.</desc>
    <g id="icon-pin" stroke="none" stroke-width="1" fill="none" fill-rule="evenodd">
        <path d="M10.611082,1 C10.881758,1 11.1011843,1.21059202 11.1011843,1.49060548 L11.1011843,7.18194901 L11.1011843,7.18194901 C11.1011843,7.93416484 11.8216514,8.67933323 11.8216514,8.67933323 C12.1514237,9.09866275 11.9912437,9.43859649 11.4533157,9.43859649 L8.60447385,9.438 L8.60505236,13.5243349 C8.60505236,13.7870375 8.3936578,14 8.11143111,14 L7.88506458,14 C7.61244509,14 7.39144333,13.7799392 7.39144333,13.5243349 L7.39047385,9.438 L4.52052773,9.43859649 C3.98732927,9.43859649 3.847971,9.11848095 4.1974214,8.71200192 C4.1974214,8.71200192 5.1122178,7.80765716 5.1122178,7.18194901 L5.1122178,1.47770618 L5.1122178,1.47770618 C5.1122178,1.21387634 5.32536829,1 5.60232006,1 L10.611082,1 Z" id="Rectangle-845-Copy-2" fill="#000000"></path>
    </g>
</svg>