<?xml version="1.0" encoding="UTF-8"?>
<svg width="16px" height="16px" viewBox="0 0 16 16" version="1.1" xmlns="http://www.w3.org/2000/svg" xmlns:xlink="http://www.w3.org/1999/xlink">
    <!-- Generator: Sketch 64 (93537) - https://sketch.com -->
    <title>icon-save</title>
    <desc>Created with Sketch.</desc>
    <g id="icon-save" stroke="none" stroke-width="1" fill="none" fill-rule="evenodd">
        <g id="Group-5">
            <polygon id="Stroke-1" stroke-opacity="0.0117647061" stroke="#000000" stroke-width="0.5" points="0 0 15.9999993 0 15.9999993 15.9999993 0 15.9999993"></polygon>
            <path d="M11.3333327,1.99999988 L3.33333313,1.99999988 C2.59333311,1.99999988 1.99999988,2.59999991 1.99999988,3.33333313 L1.99999988,12.6666659 C1.99999988,13.3999992 2.59333311,13.9999999 3.33333313,13.9999999 L12.6666659,13.9999999 C13.3999992,13.9999999 13.9999999,13.3999992 13.9999999,12.6666659 L13.9999999,4.66666639 L11.3333327,1.99999988 Z M7.99999964,12.6666661 C6.89333305,12.6666661 5.99999964,11.7733326 5.99999964,10.6666661 C5.99999964,9.55999956 6.89333305,8.66666615 7.99999964,8.66666615 C9.10666599,8.66666615 9.99999964,9.55999956 9.99999964,10.6666661 C9.99999964,11.7733326 9.10666599,12.6666661 7.99999964,12.6666661 Z M9.9999994,5.99999964 L3.33333313,5.99999964 L3.33333313,3.33333313 L9.9999994,3.33333313 L9.9999994,5.99999964 Z" id="Fill-3" fill="#000000"></path>
        </g>
    </g>
</svg>