<?xml version="1.0" encoding="UTF-8"?>
<svg width="16px" height="16px" viewBox="0 0 16 16" version="1.1" xmlns="http://www.w3.org/2000/svg" xmlns:xlink="http://www.w3.org/1999/xlink">
    <!-- Generator: Sketch 64 (93537) - https://sketch.com -->
    <title>close</title>
    <desc>Created with Sketch.</desc>
    <g id="close" stroke="none" stroke-width="1" fill="none" fill-rule="evenodd">
        <path d="M8,1 C8.55228475,1 9,1.44994876 9,2.00684547 L8.999,6.999 L13.9931545,7 C14.509501,7 14.9350657,7.38272018 14.9932262,7.88266744 L15,8 C15,8.55228475 14.5500512,9 13.9931545,9 L8.999,8.999 L9,13.9931545 C9,14.509501 8.61727982,14.9350657 8.11733256,14.9932262 L8,15 C7.44771525,15 7,14.5500512 7,13.9931545 L6.999,8.999 L2.00684547,9 C1.49049903,9 1.06493432,8.61727982 1.00677379,8.11733256 L1,8 C1,7.44771525 1.44994876,7 2.00684547,7 L6.999,6.999 L7,2.00684547 C7,1.49049903 7.38272018,1.06493432 7.88266744,1.00677379 L8,1 Z" id="Close-button" fill="#000000" transform="translate(8.000000, 8.000000) rotate(-45.000000) translate(-8.000000, -8.000000) "></path>
    </g>
</svg>