<?xml version="1.0" encoding="UTF-8"?>
<svg width="16px" height="16px" viewBox="0 0 16 16" version="1.1" xmlns="http://www.w3.org/2000/svg" xmlns:xlink="http://www.w3.org/1999/xlink">
    <!-- Generator: Sketch 64 (93537) - https://sketch.com -->
    <title>icon-activity</title>
    <desc>Created with Sketch.</desc>
    <g id="icon-activity" stroke="none" stroke-width="1" fill="none" fill-rule="evenodd">
        <g id="Group-5" transform="translate(-1.000000, 0.000000)">
            <polygon id="Stroke-1" stroke-opacity="0.0117647061" stroke="#000000" stroke-width="0.5" points="1.99999962 -3.74999217e-07 17.9999996 -3.74999217e-07 17.9999996 15.9999996 1.99999962 15.9999996"></polygon>
            <path d="M9.74999996,1.24999987 C6.02249941,1.24999987 2.99999982,4.27249983 2.99999982,7.99999946 L0.749999955,7.99999946 L3.6674997,10.9174988 L3.71999978,11.0224984 L6.74999996,7.99999946 L4.49999973,7.99999946 C4.49999973,5.09749971 6.84749966,2.74999987 9.74999996,2.74999987 C12.6524985,2.74999987 14.9999991,5.09749971 14.9999991,7.99999946 C14.9999991,10.9024992 12.6524985,13.2499999 9.74999996,13.2499999 C8.30249928,13.2499999 6.98999936,12.6574984 6.04499926,11.705 L4.97999925,12.7699999 C6.2025,13.9924991 7.88249968,14.7499999 9.74999996,14.7499999 C13.4774999,14.7499999 16.499999,11.7274985 16.499999,7.99999946 C16.499999,4.27250021 13.4774984,1.24999987 9.74999996,1.24999987 Z M8.99999946,4.99999964 L8.99999946,8.74999942 L12.2099998,10.6549993 L12.7499992,9.74749928 L10.1249994,8.18749945 L10.1249994,4.99999964 L8.99999946,4.99999964 Z" id="Fill-3" fill="#000000"></path>
        </g>
    </g>
</svg>