<?xml version="1.0" encoding="UTF-8"?>
<svg width="24px" height="24px" viewBox="0 0 24 24" version="1.1" xmlns="http://www.w3.org/2000/svg" xmlns:xlink="http://www.w3.org/1999/xlink">
    <!-- Generator: Sketch 64 (93537) - https://sketch.com -->
    <title>icon-alerts</title>
    <desc>Created with Sketch.</desc>
    <g id="icon-alerts" stroke="none" stroke-width="1" fill="none" fill-rule="evenodd">
        <g stroke="#000000">
            <polygon id="Stroke-1" stroke-opacity="0.0117647061" stroke-width="1.33333336e-11" points="0 0 23.999999 0 23.999999 23.999999 0 23.999999"></polygon>
            <path d="M4.35421303,18.9999999 L19.6457866,18.9999999 L17.8799999,17.2342124 L17.8799999,10.9999999 C17.8799999,9.6254216 17.4092809,8.36161848 16.6183043,7.36130969 C15.6571205,6.14574808 14.2241039,5.31852429 12.5900003,5.15388275 L12.5900003,3.58999968 C12.5900001,3.42672996 12.524688,3.27890185 12.4178928,3.17210672 C12.3110979,3.06531182 12.1632702,2.99999988 11.582106,3.17210674 C11.475311,3.27890167 11.4099992,3.42672953 11.4099992,3.58999998 L11.4099992,5.15388257 C9.77589553,5.31852454 8.34287892,6.1457484 7.38169501,7.36131005 C6.59071857,8.36161875 6.11999959,9.62542169 6.11999959,10.9999999 L6.11999959,17.2342124 L4.35421303,18.9999999 Z" id="Fill-3" stroke-width="2"></path>
        </g>
    </g>
</svg>