<?xml version="1.0" encoding="UTF-8"?>
<svg width="16px" height="16px" viewBox="0 0 16 16" version="1.1" xmlns="http://www.w3.org/2000/svg" xmlns:xlink="http://www.w3.org/1999/xlink">
    <!-- Generator: Sketch 64 (93537) - https://sketch.com -->
    <title>icon-reload</title>
    <desc>Created with Sketch.</desc>
    <g id="icon-reload" stroke="none" stroke-width="1" fill="none" fill-rule="evenodd">
        <g id="Group-5" transform="translate(2.000000, 0.000000)" fill="#000000">
            <path d="M5.75999965,3.59999978 L5.75999965,5.75999965 L8.63999948,2.87999983 L5.75999965,0 L5.75999965,2.15999987 C2.57759977,2.15999987 0,4.73759964 0,7.91999952 C0,9.05039924 0.33119998,10.1015992 0.892799802,10.9871995 L1.94399974,9.93599955 C1.6199999,9.33839966 1.43999991,8.64719963 1.43999991,7.91999952 C1.43999991,5.53680003 3.37680016,3.59999978 5.75999965,3.59999978 Z M10.6271994,4.85279956 L9.57599871,5.9039995 C9.89279941,6.50879961 10.0799994,7.19279942 10.0799994,7.91999952 C10.0799994,10.303199 8.14319915,12.2399993 5.75999965,12.2399993 L5.75999965,10.0799994 L2.87999983,12.9599992 L5.75999965,15.839999 L5.75999965,13.6799992 C8.94239954,13.6799992 11.5199993,11.1023994 11.5199993,7.91999952 C11.5199993,6.78959981 11.1888,5.73839987 10.6271994,4.85279956 Z" id="Fill-3"></path>
        </g>
    </g>
</svg>