<svg width="300" height="263" viewBox="0 0 300 263" xmlns="http://www.w3.org/2000/svg">
    <title>
        Akten
    </title>
    <g fill="none" fill-rule="evenodd">
        <path fill="none" d="M-75-87h450v450H-75z"/>
        <path d="M19.565.5C8.778.5 0 9.847 0 21.333V63h300V49.111c0-11.486-8.778-20.833-19.565-20.833l-175.794.04c-1.82-.7-5.583-7.08-7.605-10.511C92.034 9.307 86.85.5 78.261.5H19.565zM6.522 88C2.922 88 0 90.529 0 93.645v152.42C0 255.419 8.759 263 19.565 263h260.87C291.24 263 300 255.419 300 246.065V93.645c0-3.116-2.922-5.645-6.522-5.645H6.522z" fill="#FFF" fill-rule="nonzero"/>
    </g>
</svg>
