<svg width="326" height="326" viewBox="0 0 326 326" xmlns="http://www.w3.org/2000/svg">
    <title>
        Auswahl
    </title>
    <g fill="none" fill-rule="evenodd">
        <path fill="none" d="M-62-62h450v450H-62z"/>
        <path d="M63 .5C28.682.5.5 28.682.5 63v150c0 34.318 28.182 62.5 62.5 62.5h150c34.318 0 62.5-28.182 62.5-62.5V63C275.5 28.682 247.318.5 213 .5H63zm237.5 62.817c15.087 11.413 25 29.345 25 49.683v150c0 34.462-28.038 62.5-62.5 62.5H113c-20.338 0-38.27-9.913-49.683-25H263c20.675 0 37.5-16.825 37.5-37.5V63.317zM190.173 75.573c1.573-.287 3.262.044 4.687 1.026l15.43 10.644c2.838 1.963 3.55 5.854 1.587 8.692l-70.41 104.077c-2.625 3.812-6.838 6.24-11.45 6.665-.463.05-.93.073-1.392.073-4.125 0-8.11-1.628-11.06-4.565l-40.234-40.26c-2.437-2.437-2.437-6.4 0-8.837l13.232-13.257c2.438-2.437 6.4-2.437 8.838 0l27.002 27.002 59.766-88.647c.981-1.42 2.43-2.325 4.004-2.613z" fill="#FFF" fill-rule="nonzero"/>
    </g>
</svg>
