<svg width="300" height="226" viewBox="0 0 300 226" xmlns="http://www.w3.org/2000/svg">
    <title>
        Email
    </title>
    <g fill="none" fill-rule="evenodd">
        <path fill="none" d="M-75-112h450v450H-75z"/>
        <path d="M149.994 130.763C125.613 130.763 0 34.736 0 34.736V24.184C0 11.111 11.186.5 24.993.5h250.002C288.815.5 300 11.11 300 24.184l-.2 11.842s-124.252 94.737-149.806 94.737zm0 20.724c26.728 0 149.806-91.776 149.806-91.776l.2 142.105c0 13.073-11.186 23.684-25.005 23.684H24.993C11.198 225.5 0 214.89 0 201.816L.2 59.71c-.013 0 125.413 91.776 149.794 91.776z" fill="#FFF" fill-rule="nonzero"/>
    </g>
</svg>
