<svg width="300" height="300" viewBox="0 0 300 300" xmlns="http://www.w3.org/2000/svg">
    <title>
        Fristen
    </title>
    <g fill="none" fill-rule="evenodd">
        <path fill="none" d="M-75-75h450v450H-75z"/>
        <path d="M162.5 143.768V50h-25v99.857c-.003.262.003.524.016.785.09 1.767.546 3.438 1.295 4.937.746 1.5 1.806 2.87 3.163 4.004.2.169.407.33.618.486l69.766 52.573 15.045-19.966-64.903-48.908zM150 300C67.157 300 0 232.843 0 150S67.157 0 150 0s150 67.157 150 150-67.157 150-150 150z" fill="#FFF"/>
    </g>
</svg>
