<svg width="270" height="315" viewBox="0 0 270 315" xmlns="http://www.w3.org/2000/svg">
    <title>
        Kontakte
    </title>
    <g fill="none" fill-rule="evenodd">
        <path fill="none" d="M-87-61h450v450H-87z"/>
        <path d="M190.192 216.192c39.117 5.943 65.285 31.697 70.41 41.036 9.713 17.264 8.903 57.451 8.903 57.451H.54s-1.349-42.734 11.6-59.998c7.284-7.358 30.215-32.546 69.332-38.772 38.848-5.944 26.978-51.225 28.327-50.66 1.349.85-.27-9.622-.27-9.622s-28.326-28.584-28.057-54.338c.54-26.037 0-39.338 0-39.338S86.06.82 125.985.82l22.391 11.32c35.88 0 41.816 49.81 41.816 49.81v43.018s-4.587 36.508-26.978 49.81c0 0-1.619 10.47-.27 9.622 1.35-.566-11.6 45.564 27.248 51.79z" fill="#FFF"/>
    </g>
</svg>
