<svg width="250" height="313" viewBox="0 0 250 313" xmlns="http://www.w3.org/2000/svg">
    <title>
        Leistungen
    </title>
    <g fill="none" fill-rule="evenodd">
        <path fill="none" d="M-100-62h450v450h-450z"/>
        <path d="M37.5 25.5v25C37.5 57.404 43.096 63 50 63h150c6.904 0 12.5-5.596 12.5-12.5v-25H225c13.813 0 25 11.19 25 24.995v237.51C250 301.807 238.807 313 225 313H25c-13.813 0-25-11.19-25-24.995V50.495C0 36.693 11.193 25.5 25 25.5h12.5zm150 82.322l-73.445 73.445-39.71-36.871-17.01 18.32 57.363 53.263 90.48-90.479-17.678-17.678zM62.5.5h125V38h-125V.5z" fill="#FFF"/>
    </g>
</svg>
