<svg width="257" height="257" viewBox="0 0 257 257" xmlns="http://www.w3.org/2000/svg">
    <title>
        Marken
    </title>
    <g fill="none" fill-rule="evenodd">
        <path fill="none" d="M-97-97h450v450H-97z"/>
        <g fill="#FFF">
            <path d="M128.5 257C57.531 257 0 199.469 0 128.5S57.531 0 128.5 0 257 57.531 257 128.5 199.469 257 128.5 257zm0-20c59.923 0 108.5-48.577 108.5-108.5S188.423 20 128.5 20 20 68.577 20 128.5 68.577 237 128.5 237z" fill-rule="nonzero"/>
            <path d="M95.168 171.4c-.88 0-1.628-.308-2.244-.924-.616-.616-.924-1.364-.924-2.244V82.3c0-.968.286-1.76.858-2.376.572-.616 1.342-.924 2.31-.924h34.188c10.824 0 19.294 2.508 25.41 7.524s9.174 12.144 9.174 21.384c0 6.424-1.54 11.814-4.62 16.17-3.08 4.356-7.392 7.502-12.936 9.438l19.14 33.66c.264.528.396 1.012.396 1.452 0 .792-.286 1.452-.858 1.98-.572.528-1.21.792-1.914.792h-12.144c-1.408 0-2.508-.33-3.3-.99-.792-.66-1.496-1.518-2.112-2.574l-16.896-31.284h-18.084v31.68c0 .88-.308 1.628-.924 2.244-.616.616-1.408.924-2.376.924H95.168zm33.792-49.896c5.28 0 9.24-1.166 11.88-3.498 2.64-2.332 3.96-5.742 3.96-10.23s-1.32-7.942-3.96-10.362c-2.64-2.42-6.6-3.63-11.88-3.63h-18.348v27.72h18.348z"/>
        </g>
    </g>
</svg>
