<svg width="271" height="204" viewBox="0 0 271 204" xmlns="http://www.w3.org/2000/svg">
    <title>
        tasks
    </title>
    <g fill="none" fill-rule="evenodd">
        <path fill="none" d="M-90-111h450v450H-90z"/>
        <path d="M13 0h245c7.18 0 13 5.82 13 13v118c0 7.18-5.82 13-13 13H13c-7.18 0-13-5.82-13-13V13C0 5.82 5.82 0 13 0zm163.206 33l-53.155 53.155-28.74-26.685L82 72.73l41.517 38.547L189 45.794 176.206 33z" fill="#FFF"/>
        <path d="M271 143v18c0 7.18-5.82 13-13 13H13c-7.18 0-13-5.82-13-13v-18c0 7.18 5.82 13 13 13h245c7.18 0 13-5.82 13-13z" fill="#FFF"/>
        <path d="M271 173v18c0 7.18-5.82 13-13 13H13c-7.18 0-13-5.82-13-13v-18c0 7.18 5.82 13 13 13h245c7.18 0 13-5.82 13-13z" fill="#FFF"/>
    </g>
</svg>
